<svg xmlns="http://www.w3.org/2000/svg" viewBox="0 0 99.14 36.2"><title>Asset 9</title><g style="isolation:isolate"><path d="M95.21,10.1a7.58,7.58,0,0,1,2.89,3.25,11.33,11.33,0,0,1,1,5,11.33,11.33,0,0,1-1,5,7.58,7.58,0,0,1-2.89,3.25,7.84,7.84,0,0,1-4.16,1.12,6.91,6.91,0,0,1-3.94-1.1,6.13,6.13,0,0,1-2.33-3V36.2H80.13V8.94h4.65V13a6,6,0,0,1,2.33-2.93A6.91,6.91,0,0,1,91.05,9,7.84,7.84,0,0,1,95.21,10.1Zm-9.09,4.37a5.41,5.41,0,0,0-1.37,3.88,5.32,5.32,0,0,0,1.37,3.84,5,5,0,0,0,7,0,5.45,5.45,0,0,0,1.32-3.88,5.47,5.47,0,0,0-1.32-3.89,5,5,0,0,0-7,0Z" fill="#fff"/></g><g style="isolation:isolate"><path d="M28.53,11a8.21,8.21,0,0,1,1.93,5.85V27.72H25.84V17.39a4.58,4.58,0,0,0-1.07-3.25,3.87,3.87,0,0,0-3-1.14,4.07,4.07,0,0,0-3.1,1.22,5,5,0,0,0-1.15,3.57v9.93H12.94V17.39a4.54,4.54,0,0,0-1.08-3.25A3.85,3.85,0,0,0,8.91,13a4.07,4.07,0,0,0-3.1,1.22,5,5,0,0,0-1.16,3.57v9.93H0V8.94H4.65v3.73A5.71,5.71,0,0,1,7,9.92a6.74,6.74,0,0,1,3.64-1A7,7,0,0,1,14.44,10a6.44,6.44,0,0,1,2.46,3,6.89,6.89,0,0,1,6.37-4.1A6.85,6.85,0,0,1,28.53,11Z" fill="#fff"/><path d="M51.58,19.24H38.18a5.08,5.08,0,0,0,1.32,3.6,4.25,4.25,0,0,0,3,1.15,4.42,4.42,0,0,0,2.69-.79,3.54,3.54,0,0,0,1.37-2.14h4.91A7.88,7.88,0,0,1,50,24.49a8.09,8.09,0,0,1-3.05,2.37A10.43,10.43,0,0,1,38,26.58a8,8,0,0,1-3.24-3.25,10.23,10.23,0,0,1-1.15-5,10.34,10.34,0,0,1,1.15-5A7.87,7.87,0,0,1,38,10.1,9.8,9.8,0,0,1,42.77,9,9.59,9.59,0,0,1,47.5,10.1a8,8,0,0,1,3.14,3.08,8.93,8.93,0,0,1,1.1,4.48A8.71,8.71,0,0,1,51.58,19.24Zm-5.69-5.45a4.52,4.52,0,0,0-3.12-1.15,4.61,4.61,0,0,0-3.17,1.15,4.76,4.76,0,0,0-1.42,3.4h8.88A4.16,4.16,0,0,0,45.89,13.79Z" fill="#fff"/></g><path d="M52.66,5.54,59.24,0l5.65,5.54h-3.1V18.89s2.13,4.41,5.32,4.31c6.68-.19,10-7.37,10-7.37s-1.4,12.22-11.58,11.88c-7.67-.24-9.9-7.88-9.9-7.88V5.72Z" fill="#e86c60"/><path d="M71.83,4.54S73.36,11,72.28,15c-.42,1.54-2.83,7-2.83,7s7.36-3.69,7.38-10.95C76.89,6.83,71.83,4.54,71.83,4.54Z" fill="#e86c60"/></svg>